:FULLY-SPECIFIED
:FORCE-ALL-JOINTS-BE-3DOF
:DEGREES
679
root 5.37335 16.6046 1.04601 15.8732 -24.3702 1.25343
lfemur -33.7193 24.5698 -8.63737
ltibia 93.3402 0 0
lfoot 5.00102 -3.75224 0
ltoes 9.56144 0 0
rfemur -35.5298 -12.6083 25.1625
rtibia 50.1222 0 0
rfoot -14.3305 -4.6504 0
rtoes 2.28383 0 0
lowerback 0.161727 -5.88911 -1.11032
upperback -1.9699 -7.91969 0.0563814
thorax -1.94263 -3.94616 0.773617
lowerneck -9.11365 -4.45582 0.253788
upperneck 2.32386 -6.16938 3.39292
head 2.42305 -2.96982 0.741904
lclavicle 3.89049e-15 2.4422e-15 0
lhumerus 5.56164 -58.2944 64.0182
lradius 84.7657 0 0
lwrist 28.4999 0 0
lhand -14.6728 -1.90891 0
lfingers 7.12502 0 0
lthumb 11.4782 27.7105 0
rclavicle 3.89049e-15 2.4422e-15 0
rhumerus -46.9395 -11.6527 -40.8532
rradius 76.1449 0 0
rwrist -17.5238 0 0
rhand -29.3884 -46.3567 0
rfingers 7.12502 0 0
rthumb -2.72643 -796.3 0
680
root 5.3674 16.7227 1.19489 15.6779 -25.9545 1.34554
lfemur -34.7147 23.9998 -6.4841
ltibia 95.6411 0 0
lfoot 5.29792 -3.75513 0
ltoes 11.0186 0 0
rfemur -33.651 -11.8219 24.3755
rtibia 47.2711 0 0
rfoot -12.7551 -4.13941 0
rtoes 2.28392 0 0
lowerback 0.342458 -5.78715 -1.19627
upperback -1.95773 -7.79402 -0.113633
thorax -2.04458 -3.88254 0.6635
lowerneck -8.92536 -4.47053 0.23484
upperneck 2.44778 -6.19734 3.52497
head 2.43683 -2.98004 0.789189
lclavicle 1.98783e-15 3.97568e-15 0
lhumerus 7.33213 -56.232 60.6205
lradius 84.5269 0 0
lwrist 28.5978 0 0
lhand -15.139 -2.20245 0
lfingers 7.12502 0 0
lthumb 11.0284 27.4375 0
rclavicle 1.98783e-15 3.97568e-15 0
rhumerus -46.273 -11.4668 -39.2031
rradius 77.8081 0 0
rwrist -17.0903 0 0
rhand -29.7001 -46.0242 0
rfingers 7.12502 0 0
rthumb -3.02747 -795.962 0
681
root 5.36145 16.8409 1.34376 15.4826 -27.5389 1.43765
lfemur -35.71 23.4298 -4.33083
ltibia 97.9421 0 0
lfoot 5.59482 -3.75803 0
ltoes 12.4758 0 0
rfemur -31.7723 -11.0356 23.5885
rtibia 44.42 0 0
rfoot -11.1796 -3.62842 0
rtoes 2.28402 0 0
lowerback 0.523189 -5.6852 -1.28223
upperback -1.94557 -7.66835 -0.283648
thorax -2.14653 -3.81893 0.553383
lowerneck -8.73706 -4.48524 0.215893
upperneck 2.57169 -6.22531 3.65702
head 2.45062 -2.99027 0.836475
lclavicle 8.5181e-17 5.50916e-15 0
lhumerus 9.10262 -54.1695 57.2228
lradius 84.2881 0 0
lwrist 28.6957 0 0
lhand -15.6053 -2.49599 0
lfingers 7.12502 0 0
lthumb 10.5786 27.1644 0
rclavicle 8.5181e-17 5.50916e-15 0
rhumerus -45.6065 -11.281 -37.553
rradius 79.4713 0 0
rwrist -16.6568 0 0
rhand -30.0119 -45.6917 0
rfingers 7.12502 0 0
rthumb -3.3285 -795.623 0
682
root 5.35549 16.9591 1.49264 15.2872 -29.1232 1.52976
lfemur -36.7054 22.8597 -2.17756
ltibia 100.243 0 0
lfoot 5.89172 -3.76092 0
ltoes 13.933 0 0
rfemur -29.8936 -10.2493 22.8015
rtibia 41.569 0 0
rfoot -9.60414 -3.11744 0
rtoes 2.28411 0 0
lowerback 0.70392 -5.58324 -1.36819
upperback -1.9334 -7.54268 -0.453663
thorax -2.24849 -3.75532 0.443266
lowerneck -8.54877 -4.49996 0.196946
upperneck 2.69561 -6.25327 3.78907
head 2.46441 -3.00049 0.883761
lclavicle -1.81747e-15 7.04264e-15 0
lhumerus 10.8731 -52.107 53.8251
lradius 84.0493 0 0
lwrist 28.7937 0 0
lhand -16.0715 -2.78953 0
lfingers 7.12502 0 0
lthumb 10.1287 26.8914 0
rclavicle -1.81747e-15 7.04264e-15 0
rhumerus -44.94 -11.0951 -35.9029
rradius 81.1345 0 0
rwrist -16.2233 0 0
rhand -30.3236 -45.3591 0
rfingers 7.12502 0 0
rthumb -3.62953 -795.285 0
683
root 5.34954 17.0772 1.64152 15.0919 -30.7076 1.62187
lfemur -37.7007 22.2897 -0.0242857
ltibia 102.544 0 0
lfoot 6.18862 -3.76381 0
ltoes 15.3902 0 0
rfemur -28.0149 -9.46298 22.0145
rtibia 38.7179 0 0
rfoot -8.02868 -2.60645 0
rtoes 2.2842 0 0
lowerback 0.884651 -5.48128 -1.45415
upperback -1.92124 -7.41701 -0.623678
thorax -2.35044 -3.6917 0.333149
lowerneck -8.36048 -4.51467 0.177998
upperneck 2.81952 -6.28124 3.92112
head 2.4782 -3.01071 0.931047
lclavicle -3.72012e-15 8.57612e-15 0
lhumerus 12.6436 -50.0446 50.4274
lradius 83.8105 0 0
lwrist 28.8916 0 0
lhand -16.5378 -3.08307 0
lfingers 7.12502 0 0
lthumb 9.67891 26.6184 0
rclavicle -3.72012e-15 8.57612e-15 0
rhumerus -44.2735 -10.9093 -34.2528
rradius 82.7977 0 0
rwrist -15.7898 0 0
rhand -30.6354 -45.0266 0
rfingers 7.12502 0 0
rthumb -3.93056 -794.947 0
684
root 5.34358 17.1954 1.79039 14.8965 -32.2919 1.71399
lfemur -38.6961 21.7196 2.12899
ltibia 104.845 0 0
lfoot 6.48551 -3.76671 0
ltoes 16.8474 0 0
rfemur -26.1361 -8.67666 21.2275
rtibia 35.8668 0 0
rfoot -6.45321 -2.09547 0
rtoes 2.2843 0 0
lowerback 1.06538 -5.37932 -1.5401
upperback -1.90907 -7.29135 -0.793692
thorax -2.4524 -3.62809 0.223032
lowerneck -8.17219 -4.52939 0.159051
upperneck 2.94344 -6.3092 4.05316
head 2.49198 -3.02094 0.978332
lclavicle -5.62278e-15 1.01096e-14 0
lhumerus 14.4141 -47.9821 47.0297
lradius 83.5716 0 0
lwrist 28.9895 0 0
lhand -17.004 -3.37661 0
lfingers 7.12502 0 0
lthumb 9.22908 26.3454 0
rclavicle -5.62278e-15 1.01096e-14 0
rhumerus -43.6069 -10.7235 -32.6028
rradius 84.461 0 0
rwrist -15.3563 0 0
rhand -30.9471 -44.694 0
rfingers 7.12502 0 0
rthumb -4.23159 -794.608 0
685
root 5.33763 17.3135 1.93927 14.7012 -33.8763 1.8061
lfemur -39.6914 21.1496 4.28226
ltibia 107.146 0 0
lfoot 6.78241 -3.7696 0
ltoes 18.3045 0 0
rfemur -24.2574 -7.89034 20.4405
rtibia 33.0157 0 0
rfoot -4.87775 -1.58448 0
rtoes 2.28439 0 0
lowerback 1.24611 -5.27736 -1.62606
upperback -1.89691 -7.16568 -0.963707
thorax -2.55435 -3.56447 0.112915
lowerneck -7.9839 -4.5441 0.140103
upperneck 3.06735 -6.33717 4.18521
head 2.50577 -3.03116 1.02562
lclavicle -7.52543e-15 1.16431e-14 0
lhumerus 16.1846 -45.9197 43.632
lradius 83.3328 0 0
lwrist 29.0874 0 0
lhand -17.4703 -3.67015 0
lfingers 7.12502 0 0
lthumb 8.77925 26.0724 0
rclavicle -7.52543e-15 1.16431e-14 0
rhumerus -42.9404 -10.5376 -30.9527
rradius 86.1242 0 0
rwrist -14.9228 0 0
rhand -31.2589 -44.3615 0
rfingers 7.12502 0 0
rthumb -4.53262 -794.27 0
686
root 5.33167 17.4317 2.08815 14.5058 -35.4606 1.89821
lfemur -40.6868 20.5795 6.43553
ltibia 109.447 0 0
lfoot 7.07931 -3.77249 0
ltoes 19.7617 0 0
rfemur -22.3787 -7.10402 19.6535
rtibia 30.1647 0 0
rfoot -3.30229 -1.0735 0
rtoes 2.28448 0 0
lowerback 1.42684 -5.1754 -1.71202
upperback -1.88474 -7.04001 -1.13372
thorax -2.65631 -3.50086 0.00279776
lowerneck -7.79561 -4.55882 0.121156
upperneck 3.19127 -6.36513 4.31726
head 2.51956 -3.04138 1.0729
lclavicle -9.42808e-15 1.31766e-14 0
lhumerus 17.9551 -43.8572 40.2343
lradius 83.094 0 0
lwrist 29.1854 0 0
lhand -17.9365 -3.96369 0
lfingers 7.12502 0 0
lthumb 8.32942 25.7994 0
rclavicle -9.42808e-15 1.31766e-14 0
rhumerus -42.2739 -10.3518 -29.3026
rradius 87.7874 0 0
rwrist -14.4893 0 0
rhand -31.5706 -44.0289 0
rfingers 7.12502 0 0
rthumb -4.83365 -793.932 0
687
root 5.32572 17.5499 2.23702 14.3105 -37.045 1.99032
lfemur -41.6821 20.0095 8.5888
ltibia 111.748 0 0
lfoot 7.37621 -3.77539 0
ltoes 21.2189 0 0
rfemur -20.5 -6.31769 18.8665
rtibia 27.3136 0 0
rfoot -1.72683 -0.56251 0
rtoes 2.28458 0 0
lowerback 1.60757 -5.07345 -1.79798
upperback -1.87258 -6.91434 -1.30374
thorax -2.75826 -3.43725 -0.107319
lowerneck -7.60731 -4.57353 0.102209
upperneck 3.31518 -6.3931 4.44931
head 2.53335 -3.05161 1.12019
lclavicle -1.13307e-14 1.471e-14 0
lhumerus 19.7256 -41.7947 36.8366
lradius 82.8552 0 0
lwrist 29.2833 0 0
lhand -18.4028 -4.25723 0
lfingers 7.12502 0 0
lthumb 7.87959 25.5263 0
rclavicle -1.13307e-14 1.471e-14 0
rhumerus -41.6074 -10.1659 -27.6525
rradius 89.4506 0 0
rwrist -14.0558 0 0
rhand -31.8824 -43.6964 0
rfingers 7.12502 0 0
rthumb -5.13468 -793.593 0
688
root 5.31977 17.668 2.3859 14.1152 -38.6293 2.08243
lfemur -42.6775 19.4395 10.7421
ltibia 114.048 0 0
lfoot 7.67311 -3.77828 0
ltoes 22.6761 0 0
rfemur -18.6212 -5.53137 18.0795
rtibia 24.4625 0 0
rfoot -0.151364 -0.0515243 0
rtoes 2.28467 0 0
lowerback 1.7883 -4.97149 -1.88393
upperback -1.86041 -6.78867 -1.47375
thorax -2.86021 -3.37363 -0.217436
lowerneck -7.41902 -4.58824 0.0832613
upperneck 3.4391 -6.42106 4.58136
head 2.54713 -3.06183 1.16748
lclavicle -1.32334e-14 1.62435e-14 0
lhumerus 21.4961 -39.7323 33.4389
lradius 82.6164 0 0
lwrist 29.3812 0 0
lhand -18.869 -4.55077 0
lfingers 7.12502 0 0
lthumb 7.42976 25.2533 0
rclavicle -1.32334e-14 1.62435e-14 0
rhumerus -40.9409 -9.98011 -26.0024
rradius 91.1138 0 0
rwrist -13.6223 0 0
rhand -32.1941 -43.3639 0
rfingers 7.12502 0 0
rthumb -5.43571 -793.255 0
689
root 5.31381 17.7862 2.53478 13.9198 -40.2137 2.17454
lfemur -43.6728 18.8694 12.8953
ltibia 116.349 0 0
lfoot 7.97001 -3.78117 0
ltoes 24.1333 0 0
rfemur -16.7425 -4.74505 17.2926
rtibia 21.6115 0 0
rfoot 1.4241 0.459461 0
rtoes 2.28476 0 0
lowerback 1.96904 -4.86953 -1.96989
upperback -1.84825 -6.663 -1.64377
thorax -2.96217 -3.31002 -0.327554
lowerneck -7.23073 -4.60296 0.0643139
upperneck 3.56301 -6.44903 4.71341
head 2.56092 -3.07205 1.21476
lclavicle -1.5136e-14 1.7777e-14 0
lhumerus 23.2665 -37.6698 30.0413
lradius 82.3776 0 0
lwrist 29.4792 0 0
lhand -19.3353 -4.84431 0
lfingers 7.12502 0 0
lthumb 6.97994 24.9803 0
rclavicle -1.5136e-14 1.7777e-14 0
rhumerus -40.2744 -9.79427 -24.3523
rradius 92.777 0 0
rwrist -13.1889 0 0
rhand -32.5059 -43.0313 0
rfingers 7.12502 0 0
rthumb -5.73674 -792.917 0
690
root 5.30786 17.9044 2.68365 13.7245 -41.798 2.26665
lfemur -44.6682 18.2994 15.0486
ltibia 118.65 0 0
lfoot 8.26691 -3.78407 0
ltoes 25.5905 0 0
rfemur -14.8638 -3.95873 16.5056
rtibia 18.7604 0 0
rfoot 2.99956 0.970447 0
rtoes 2.28486 0 0
lowerback 2.14977 -4.76757 -2.05585
upperback -1.83608 -6.53733 -1.81378
thorax -3.06412 -3.24641 -0.437671
lowerneck -7.04244 -4.61767 0.0453665
upperneck 3.68693 -6.47699 4.84546
head 2.57471 -3.08228 1.26205
lclavicle -1.70387e-14 1.93105e-14 0
lhumerus 25.037 -35.6073 26.6436
lradius 82.1388 0 0
lwrist 29.5771 0 0
lhand -19.8015 -5.13785 0
lfingers 7.12502 0 0
lthumb 6.53011 24.7073 0
rclavicle -1.70387e-14 1.93105e-14 0
rhumerus -39.6079 -9.60843 -22.7022
rradius 94.4402 0 0
rwrist -12.7554 0 0
rhand -32.8176 -42.6988 0
rfingers 7.12502 0 0
rthumb -6.03778 -792.578 0
691
root 5.3019 18.0225 2.83253 13.5291 -43.3824 2.35877
lfemur -45.6635 17.7293 17.2019
ltibia 120.951 0 0
lfoot 8.5638 -3.78696 0
ltoes 27.0476 0 0
rfemur -12.9851 -3.17241 15.7186
rtibia 15.9093 0 0
rfoot 4.57502 1.48143 0
rtoes 2.28495 0 0
lowerback 2.3305 -4.66561 -2.14181
upperback -1.82392 -6.41167 -1.9838
thorax -3.16608 -3.18279 -0.547788
lowerneck -6.85415 -4.63239 0.0264191
upperneck 3.81084 -6.50496 4.97751
head 2.5885 -3.0925 1.30933
lclavicle -1.89413e-14 2.0844e-14 0
lhumerus 26.8075 -33.5449 23.2459
lradius 81.9 0 0
lwrist 29.675 0 0
lhand -20.2678 -5.43139 0
lfingers 7.12502 0 0
lthumb 6.08028 24.4343 0
rclavicle -1.89413e-14 2.0844e-14 0
rhumerus -38.9414 -9.42259 -21.0521
rradius 96.1034 0 0
rwrist -12.3219 0 0
rhand -33.1294 -42.3662 0
rfingers 7.12502 0 0
rthumb -6.33881 -792.24 0
692
root 5.29595 18.1407 2.98141 13.3338 -44.9667 2.45088
lfemur -46.6589 17.1593 19.3552
ltibia 123.252 0 0
lfoot 8.8607 -3.78985 0
ltoes 28.5048 0 0
rfemur -11.1064 -2.38609 14.9316
rtibia 13.0583 0 0
rfoot 6.15049 1.99242 0
rtoes 2.28504 0 0
lowerback 2.51123 -4.56366 -2.22776
upperback -1.81175 -6.286 -2.15381
thorax -3.26803 -3.11918 -0.657905
lowerneck -6.66585 -4.6471 0.00747176
upperneck 3.93476 -6.53292 5.10956
head 2.60228 -3.10272 1.35662
lclavicle -2.0844e-14 2.23774e-14 0
lhumerus 28.578 -31.4824 19.8482
lradius 81.6612 0 0
lwrist 29.7729 0 0
lhand -20.734 -5.72493 0
lfingers 7.12502 0 0
lthumb 5.63045 24.1612 0
rclavicle -2.0844e-14 2.23774e-14 0
rhumerus -38.2749 -9.23675 -19.402
rradius 97.7666 0 0
rwrist -11.8884 0 0
rhand -33.4411 -42.0337 0
rfingers 7.12502 0 0
rthumb -6.63984 -791.902 0
